<svg xmlns="http://www.w3.org/2000/svg" xmlns:xlink="http://www.w3.org/1999/xlink" width="126" zoomAndPan="magnify" viewBox="0 0 94.5 30.000001" height="40" preserveAspectRatio="xMidYMid meet" version="1.0"><defs><clipPath id="id1"><path d="M 15 17 L 63 17 L 63 27.726562 L 15 27.726562 Z M 15 17 " clip-rule="nonzero"/></clipPath><clipPath id="id2"><path d="M 3.472656 1.460938 L 91 1.460938 L 91 18 L 3.472656 18 Z M 3.472656 1.460938 " clip-rule="nonzero"/></clipPath></defs><g clip-path="url(#id1)"><path fill="#ff9900" d="M 57.753906 22.058594 C 52.695312 25.792969 45.332031 27.789062 39.003906 27.789062 C 30.132812 27.789062 22.140625 24.507812 16.097656 19.050781 C 15.625 18.621094 16.050781 18.035156 16.621094 18.367188 C 23.140625 22.164062 31.207031 24.445312 39.535156 24.445312 C 45.152344 24.445312 51.335938 23.285156 57.015625 20.871094 C 57.875 20.507812 58.59375 21.433594 57.753906 22.058594 M 59.863281 19.644531 C 59.21875 18.816406 55.585938 19.253906 53.945312 19.449219 C 53.449219 19.507812 53.371094 19.074219 53.820312 18.765625 C 56.714844 16.722656 61.472656 17.3125 62.027344 17.996094 C 62.585938 18.679688 61.882812 23.449219 59.160156 25.726562 C 58.742188 26.074219 58.34375 25.890625 58.53125 25.425781 C 59.140625 23.898438 60.511719 20.476562 59.863281 19.644531 " fill-opacity="1" fill-rule="evenodd"/></g><g clip-path="url(#id2)"><path fill="#221f1f" d="M 54.058594 4.363281 L 54.058594 2.378906 C 54.054688 2.238281 54.101562 2.121094 54.203125 2.019531 C 54.300781 1.921875 54.421875 1.875 54.5625 1.878906 L 63.4375 1.878906 C 63.722656 1.878906 63.949219 2.082031 63.949219 2.378906 L 63.949219 4.078125 C 63.949219 4.363281 63.707031 4.734375 63.28125 5.324219 L 58.683594 11.890625 C 60.394531 11.847656 62.195312 12.105469 63.746094 12.976562 C 64.097656 13.175781 64.183594 13.464844 64.21875 13.75 L 64.21875 15.867188 C 64.21875 16.152344 63.898438 16.492188 63.5625 16.316406 C 60.832031 14.886719 57.203125 14.730469 54.183594 16.332031 C 53.878906 16.5 53.554688 16.164062 53.554688 15.875 L 53.554688 13.867188 C 53.554688 13.542969 53.558594 12.996094 53.878906 12.503906 L 59.210938 4.859375 L 54.582031 4.859375 C 54.296875 4.859375 54.066406 4.660156 54.066406 4.363281 M 21.675781 16.734375 L 18.976562 16.734375 C 18.71875 16.714844 18.511719 16.523438 18.492188 16.277344 L 18.492188 2.414062 C 18.492188 2.136719 18.726562 1.917969 19.011719 1.917969 L 21.53125 1.917969 C 21.792969 1.929688 22.003906 2.128906 22.023438 2.378906 L 22.023438 4.191406 L 22.070312 4.191406 C 22.730469 2.4375 23.964844 1.621094 25.628906 1.621094 C 27.316406 1.621094 28.375 2.4375 29.132812 4.191406 C 29.789062 2.4375 31.269531 1.621094 32.863281 1.621094 C 33.996094 1.621094 35.234375 2.089844 35.988281 3.136719 C 36.84375 4.304688 36.671875 6 36.671875 7.484375 L 36.664062 16.234375 C 36.664062 16.511719 36.433594 16.734375 36.144531 16.734375 L 33.4375 16.734375 C 33.175781 16.714844 32.953125 16.5 32.953125 16.234375 L 32.953125 8.878906 C 32.953125 8.292969 33.003906 6.832031 32.878906 6.277344 C 32.675781 5.347656 32.070312 5.085938 31.289062 5.085938 C 30.632812 5.085938 29.953125 5.523438 29.675781 6.222656 C 29.398438 6.921875 29.425781 8.089844 29.425781 8.878906 L 29.425781 16.226562 C 29.425781 16.503906 29.191406 16.726562 28.902344 16.726562 L 26.199219 16.726562 C 25.925781 16.707031 25.710938 16.492188 25.710938 16.226562 L 25.710938 8.878906 C 25.710938 7.332031 25.964844 5.054688 24.042969 5.054688 C 22.105469 5.054688 22.179688 7.273438 22.179688 8.878906 L 22.179688 16.226562 C 22.179688 16.503906 21.949219 16.726562 21.660156 16.726562 M 71.59375 1.632812 C 75.601562 1.632812 77.769531 5.074219 77.769531 9.453125 C 77.769531 13.679688 75.375 17.03125 71.59375 17.03125 C 67.667969 17.03125 65.515625 13.589844 65.515625 9.304688 C 65.515625 4.988281 67.683594 1.625 71.59375 1.625 M 71.617188 4.453125 C 69.625 4.453125 69.5 7.164062 69.5 8.855469 C 69.5 10.546875 69.472656 14.167969 71.59375 14.167969 C 73.6875 14.167969 73.785156 11.25 73.785156 9.472656 C 73.785156 8.300781 73.734375 6.902344 73.382812 5.792969 C 73.082031 4.828125 72.476562 4.453125 71.617188 4.453125 M 82.96875 16.734375 L 80.277344 16.734375 C 80.015625 16.714844 79.792969 16.5 79.792969 16.234375 L 79.789062 2.367188 C 79.8125 2.113281 80.035156 1.917969 80.308594 1.917969 L 82.8125 1.917969 C 83.050781 1.929688 83.242188 2.085938 83.296875 2.304688 L 83.296875 4.425781 L 83.347656 4.425781 C 84.101562 2.527344 85.160156 1.625 87.027344 1.625 C 88.25 1.625 89.417969 2.0625 90.179688 3.257812 C 90.878906 4.367188 90.878906 6.234375 90.878906 7.574219 L 90.878906 16.300781 C 90.847656 16.546875 90.625 16.738281 90.359375 16.738281 L 87.660156 16.738281 C 87.414062 16.71875 87.210938 16.535156 87.183594 16.300781 L 87.183594 8.773438 C 87.183594 7.257812 87.359375 5.039062 85.492188 5.039062 C 84.835938 5.039062 84.230469 5.476562 83.921875 6.144531 C 83.542969 6.992188 83.492188 7.835938 83.492188 8.769531 L 83.492188 16.234375 C 83.488281 16.511719 83.253906 16.738281 82.964844 16.738281 M 46.988281 10.105469 C 46.988281 11.15625 47.015625 12.023438 46.484375 12.96875 C 46.054688 13.726562 45.371094 14.195312 44.613281 14.195312 C 43.578125 14.195312 42.96875 13.40625 42.96875 12.238281 C 42.96875 9.9375 45.03125 9.519531 46.988281 9.519531 L 46.988281 10.105469 M 49.710938 16.6875 C 49.53125 16.847656 49.273438 16.859375 49.074219 16.75 C 48.175781 16.007812 48.011719 15.660156 47.523438 14.953125 C 46.042969 16.464844 44.988281 16.914062 43.070312 16.914062 C 40.796875 16.914062 39.027344 15.511719 39.027344 12.707031 C 39.027344 10.515625 40.214844 9.023438 41.910156 8.292969 C 43.375 7.648438 45.421875 7.53125 46.988281 7.355469 L 46.988281 7.003906 C 46.988281 6.363281 47.035156 5.605469 46.65625 5.046875 C 46.328125 4.550781 45.699219 4.347656 45.140625 4.347656 C 44.109375 4.347656 43.195312 4.875 42.96875 5.96875 C 42.925781 6.214844 42.746094 6.453125 42.5 6.464844 L 39.882812 6.183594 C 39.660156 6.132812 39.414062 5.957031 39.480469 5.613281 C 40.082031 2.4375 42.953125 1.480469 45.519531 1.480469 C 46.832031 1.480469 48.550781 1.832031 49.585938 2.824219 C 50.902344 4.054688 50.777344 5.691406 50.777344 7.472656 L 50.777344 11.679688 C 50.777344 12.945312 51.300781 13.5 51.792969 14.183594 C 51.964844 14.429688 52.003906 14.722656 51.78125 14.902344 L 49.714844 16.703125 L 49.710938 16.695312 M 11.582031 10.113281 C 11.582031 11.164062 11.605469 12.035156 11.074219 12.976562 C 10.644531 13.738281 9.964844 14.203125 9.207031 14.203125 C 8.167969 14.203125 7.566406 13.414062 7.566406 12.25 C 7.566406 9.945312 9.628906 9.527344 11.578125 9.527344 L 11.578125 10.113281 M 14.300781 16.695312 C 14.121094 16.855469 13.867188 16.867188 13.664062 16.761719 C 12.769531 16.015625 12.617188 15.667969 12.113281 14.960938 C 10.632812 16.472656 9.582031 16.925781 7.664062 16.925781 C 5.390625 16.925781 3.621094 15.523438 3.621094 12.714844 C 3.621094 10.523438 4.808594 9.03125 6.5 8.304688 C 7.96875 7.65625 10.015625 7.542969 11.582031 7.363281 L 11.582031 7.015625 C 11.582031 6.375 11.628906 5.613281 11.253906 5.058594 C 10.921875 4.5625 10.292969 4.355469 9.738281 4.355469 C 8.707031 4.355469 7.789062 4.882812 7.558594 5.980469 C 7.511719 6.222656 7.332031 6.460938 7.089844 6.472656 L 4.46875 6.191406 C 4.25 6.144531 4.007812 5.964844 4.066406 5.625 C 4.671875 2.449219 7.539062 1.492188 10.105469 1.492188 C 11.421875 1.492188 13.136719 1.839844 14.175781 2.835938 C 15.488281 4.0625 15.363281 5.699219 15.363281 7.484375 L 15.363281 11.691406 C 15.363281 12.957031 15.886719 13.511719 16.382812 14.195312 C 16.554688 14.441406 16.59375 14.730469 16.371094 14.914062 L 14.3125 16.703125 L 14.304688 16.695312 " fill-opacity="1" fill-rule="evenodd"/></g></svg>