<svg xmlns="http://www.w3.org/2000/svg" xmlns:xlink="http://www.w3.org/1999/xlink" width="126" zoomAndPan="magnify" viewBox="0 0 94.5 30.000001" height="40" preserveAspectRatio="xMidYMid meet" version="1.0"><defs><g/><clipPath id="id1"><path d="M 2.59375 1.460938 L 28.863281 1.460938 L 28.863281 27.726562 L 2.59375 27.726562 Z M 2.59375 1.460938 " clip-rule="nonzero"/></clipPath></defs><g clip-path="url(#id1)"><path fill="#000000" d="M 26.8125 13.96875 C 27.488281 13.96875 28.042969 13.414062 28.042969 12.734375 L 28.042969 12.242188 C 28.515625 12.078125 28.863281 11.628906 28.863281 11.09375 C 28.863281 10.417969 28.308594 9.863281 27.632812 9.863281 L 24.347656 9.863281 L 24.347656 9.472656 C 24.347656 8.898438 23.9375 8.386719 23.363281 8.261719 C 23.300781 8.242188 23.238281 8.242188 23.179688 8.222656 L 23.179688 6.703125 C 23.179688 6.539062 23.097656 6.414062 22.953125 6.332031 C 22.542969 5.429688 20.878906 2.640625 16.425781 1.59375 C 16.203125 1.53125 15.996094 1.488281 15.789062 1.46875 C 15.75 1.46875 15.6875 1.46875 15.648438 1.46875 C 10.722656 2.394531 8.9375 5.410156 8.484375 6.375 C 8.363281 6.4375 8.257812 6.578125 8.257812 6.742188 L 8.257812 8.261719 C 8.199219 8.28125 8.136719 8.28125 8.074219 8.304688 C 7.519531 8.386719 7.109375 8.898438 7.109375 9.472656 L 7.109375 9.863281 L 3.828125 9.863281 C 3.148438 9.863281 2.59375 10.417969 2.59375 11.09375 C 2.59375 11.628906 2.945312 12.078125 3.417969 12.242188 L 3.417969 12.734375 C 3.417969 13.414062 3.96875 13.96875 4.648438 13.96875 L 5.261719 13.96875 L 5.261719 23.613281 L 4.851562 23.613281 C 4.175781 23.613281 3.621094 24.167969 3.621094 24.84375 L 3.621094 25.273438 C 3.046875 25.375 2.59375 25.871094 2.59375 26.484375 L 2.59375 27.304688 C 2.59375 27.53125 2.78125 27.714844 3.007812 27.714844 L 28.453125 27.714844 C 28.679688 27.714844 28.863281 27.53125 28.863281 27.304688 L 28.863281 26.484375 C 28.863281 25.871094 28.410156 25.375 27.835938 25.273438 L 27.835938 24.84375 C 27.835938 24.167969 27.28125 23.613281 26.605469 23.613281 L 26.195312 23.613281 L 26.195312 13.96875 Z M 15.730469 2.269531 C 15.894531 2.289062 16.058594 2.332031 16.242188 2.371094 C 19.609375 3.171875 21.207031 5.019531 21.886719 6.085938 C 21.699219 6.046875 21.496094 6.023438 21.289062 5.984375 C 21.289062 5.984375 21.269531 5.984375 21.269531 5.984375 L 21.042969 5.964844 C 19.464844 5.738281 17.636719 5.613281 15.730469 5.613281 C 13.820312 5.613281 11.972656 5.738281 10.414062 5.964844 C 10.125 6.003906 9.839844 6.046875 9.574219 6.105469 C 10.269531 4.980469 12.015625 2.988281 15.730469 2.269531 Z M 9.101562 7.03125 C 9.53125 6.929688 10.023438 6.847656 10.539062 6.765625 C 12.078125 6.539062 13.863281 6.414062 15.730469 6.414062 C 17.597656 6.414062 19.402344 6.539062 20.921875 6.765625 L 21.167969 6.804688 C 21.167969 6.804688 21.167969 6.804688 21.1875 6.804688 C 21.617188 6.867188 22.007812 6.949219 22.378906 7.03125 L 22.378906 8.078125 C 22.316406 8.078125 22.277344 8.058594 22.214844 8.058594 C 22.214844 8.058594 22.195312 8.058594 22.195312 8.058594 L 21.90625 8.015625 C 20.078125 7.75 17.945312 7.605469 15.730469 7.605469 C 13.511719 7.605469 11.378906 7.75 9.550781 8.015625 C 9.410156 8.035156 9.246094 8.058594 9.101562 8.078125 Z M 7.929688 9.472656 C 7.929688 9.289062 8.074219 9.101562 8.257812 9.0625 C 8.691406 8.980469 9.164062 8.898438 9.65625 8.816406 C 11.441406 8.550781 13.535156 8.40625 15.730469 8.40625 C 17.925781 8.40625 19.996094 8.550781 21.804688 8.816406 L 22.089844 8.855469 C 22.089844 8.855469 22.089844 8.855469 22.113281 8.855469 C 22.523438 8.917969 22.890625 8.980469 23.21875 9.0625 C 23.402344 9.101562 23.546875 9.269531 23.546875 9.472656 L 23.546875 9.863281 L 7.929688 9.863281 Z M 3.417969 11.09375 C 3.417969 10.867188 3.601562 10.683594 3.828125 10.683594 L 27.632812 10.683594 C 27.855469 10.683594 28.042969 10.867188 28.042969 11.09375 C 28.042969 11.320312 27.855469 11.503906 27.632812 11.503906 L 3.828125 11.503906 C 3.601562 11.503906 3.417969 11.320312 3.417969 11.09375 Z M 27.632812 26.074219 C 27.855469 26.074219 28.042969 26.257812 28.042969 26.484375 L 28.042969 26.894531 L 3.417969 26.894531 L 3.417969 26.484375 C 3.417969 26.257812 3.601562 26.074219 3.828125 26.074219 Z M 26.605469 24.433594 C 26.832031 24.433594 27.015625 24.617188 27.015625 24.84375 L 27.015625 25.253906 L 4.441406 25.253906 L 4.441406 24.84375 C 4.441406 24.617188 4.628906 24.433594 4.851562 24.433594 Z M 6.085938 23.613281 L 6.085938 13.96875 L 6.90625 13.96875 L 6.90625 23.613281 Z M 7.726562 23.613281 L 7.726562 13.96875 L 8.957031 13.96875 L 8.957031 23.613281 Z M 9.777344 23.613281 L 9.777344 13.96875 L 10.597656 13.96875 L 10.597656 23.613281 Z M 11.417969 23.613281 L 11.417969 13.96875 L 12.652344 13.96875 L 12.652344 23.613281 Z M 13.472656 23.613281 L 13.472656 13.96875 L 14.292969 13.96875 L 14.292969 23.613281 Z M 15.113281 23.613281 L 15.113281 13.96875 L 16.34375 13.96875 L 16.34375 23.613281 Z M 17.164062 23.613281 L 17.164062 13.96875 L 17.988281 13.96875 L 17.988281 23.613281 Z M 18.808594 23.613281 L 18.808594 13.96875 L 20.039062 13.96875 L 20.039062 23.613281 Z M 20.859375 23.613281 L 20.859375 13.96875 L 21.679688 13.96875 L 21.679688 23.613281 Z M 22.5 23.613281 L 22.5 13.96875 L 23.734375 13.96875 L 23.734375 23.613281 Z M 24.554688 23.613281 L 24.554688 13.96875 L 25.375 13.96875 L 25.375 23.613281 Z M 4.648438 13.144531 C 4.421875 13.144531 4.238281 12.960938 4.238281 12.734375 L 4.238281 12.324219 L 27.222656 12.324219 L 27.222656 12.734375 C 27.222656 12.960938 27.035156 13.144531 26.8125 13.144531 Z M 4.648438 13.144531 " fill-opacity="1" fill-rule="nonzero"/></g><g fill="#000000" fill-opacity="1"><g transform="translate(34.059967, 25.023041)"><g><path d="M 26.21875 -14.328125 L 25.046875 -14.328125 L 25.046875 -3.828125 L 26.21875 -3.828125 L 26.21875 0 L 17.390625 0 L 17.390625 -3.828125 L 18.515625 -3.828125 L 18.515625 -12 L 14.546875 0 L 11.09375 0 L 7 -11.875 L 7 -3.828125 L 8.125 -3.828125 L 8.125 0 L 0.46875 0 L 0.46875 -3.828125 L 1.640625 -3.828125 L 1.640625 -14.328125 L 0.46875 -14.328125 L 0.46875 -18.15625 L 11.15625 -18.15625 L 13.59375 -10.875 L 15.921875 -18.15625 L 26.21875 -18.15625 Z M 26.21875 -14.328125 "/></g></g></g><g fill="#000000" fill-opacity="1"><g transform="translate(60.74558, 25.023041)"><g><path d="M 0.46875 0 L 0.46875 -3.828125 L 1.640625 -3.828125 L 1.640625 -14.328125 L 0.46875 -14.328125 L 0.46875 -18.15625 L 9.34375 -18.15625 L 9.34375 -14.328125 L 8.171875 -14.328125 L 8.171875 -3.828125 L 9.34375 -3.828125 L 9.34375 0 Z M 0.46875 0 "/></g></g></g><g fill="#000000" fill-opacity="1"><g transform="translate(70.551314, 25.023041)"><g><path d="M 17.875 -12.515625 L 13.859375 -12.515625 L 13.859375 -14.328125 L 12.375 -14.328125 L 12.375 -3.828125 L 14 -3.828125 L 14 0 L 4.203125 0 L 4.203125 -3.828125 L 5.84375 -3.828125 L 5.84375 -14.328125 L 4.34375 -14.328125 L 4.34375 -12.515625 L 0.328125 -12.515625 L 0.328125 -18.15625 L 17.875 -18.15625 Z M 17.875 -12.515625 "/></g></g></g></svg>