<svg xmlns="http://www.w3.org/2000/svg" xmlns:xlink="http://www.w3.org/1999/xlink" width="126" zoomAndPan="magnify" viewBox="0 0 94.5 30.000001" height="40" preserveAspectRatio="xMidYMid meet" version="1.0"><defs><g/></defs><g fill="#000000" fill-opacity="1"><g transform="translate(30.008581, 21.013602)"><g><path d="M 10.84375 -14.15625 L 16.8125 -14.15625 L 16.8125 -11.171875 L 15.890625 -11.171875 L 15.890625 0 L 10.78125 0 L 5.453125 -8.203125 L 5.453125 -2.984375 L 6.328125 -2.984375 L 6.328125 0 L 0.359375 0 L 0.359375 -2.984375 L 1.265625 -2.984375 L 1.265625 -11.171875 L 0.359375 -11.171875 L 0.359375 -14.15625 L 6.921875 -14.15625 L 11.71875 -6.859375 L 11.71875 -11.171875 L 10.84375 -11.171875 Z M 10.84375 -14.15625 "/></g></g></g><g fill="#000000" fill-opacity="1"><g transform="translate(47.143155, 21.013602)"><g><path d="M 13.71875 -2.984375 L 14.4375 -2.984375 L 14.4375 0 L 7.3125 0 L 7.3125 -2.984375 L 8.40625 -2.984375 L 8.109375 -4.4375 L 5.640625 -4.4375 L 5.34375 -2.984375 L 6.4375 -2.984375 L 6.4375 0 L 0.21875 0 L 0.21875 -2.984375 L 0.953125 -2.984375 L 4.015625 -14.15625 L 10.640625 -14.15625 Z M 6.03125 -6.359375 L 7.71875 -6.359375 L 6.96875 -9.984375 L 6.78125 -9.984375 Z M 6.03125 -6.359375 "/></g></g></g><g fill="#000000" fill-opacity="1"><g transform="translate(61.803953, 21.013602)"><g><path d="M 6 0.25 C 4.832031 0.25 3.726562 0.148438 2.6875 -0.046875 C 1.65625 -0.242188 0.863281 -0.472656 0.3125 -0.734375 L 0.3125 -4.328125 L 4.3125 -4.328125 C 4.3125 -3.953125 4.394531 -3.675781 4.5625 -3.5 C 4.726562 -3.332031 5.039062 -3.25 5.5 -3.25 C 5.875 -3.25 6.140625 -3.304688 6.296875 -3.421875 C 6.460938 -3.535156 6.546875 -3.710938 6.546875 -3.953125 C 6.546875 -4.140625 6.46875 -4.300781 6.3125 -4.4375 C 6.15625 -4.582031 5.882812 -4.726562 5.5 -4.875 L 3.921875 -5.421875 C 2.578125 -5.929688 1.609375 -6.53125 1.015625 -7.21875 C 0.429688 -7.90625 0.140625 -8.835938 0.140625 -10.015625 C 0.140625 -11.453125 0.609375 -12.539062 1.546875 -13.28125 C 2.492188 -14.03125 4.0625 -14.40625 6.25 -14.40625 C 7.3125 -14.40625 8.304688 -14.296875 9.234375 -14.078125 C 10.160156 -13.867188 10.90625 -13.585938 11.46875 -13.234375 L 11.46875 -9.984375 L 7.84375 -9.984375 C 7.84375 -10.585938 7.46875 -10.890625 6.71875 -10.890625 C 6.351562 -10.890625 6.09375 -10.84375 5.9375 -10.75 C 5.78125 -10.664062 5.703125 -10.507812 5.703125 -10.28125 C 5.703125 -10.070312 5.789062 -9.90625 5.96875 -9.78125 C 6.144531 -9.664062 6.4375 -9.539062 6.84375 -9.40625 L 8.421875 -8.859375 C 9.703125 -8.421875 10.632812 -7.851562 11.21875 -7.15625 C 11.8125 -6.457031 12.109375 -5.546875 12.109375 -4.421875 C 12.109375 -2.878906 11.585938 -1.710938 10.546875 -0.921875 C 9.515625 -0.140625 8 0.25 6 0.25 Z M 6 0.25 "/></g></g></g><g fill="#000000" fill-opacity="1"><g transform="translate(74.063722, 21.013602)"><g><path d="M 13.71875 -2.984375 L 14.4375 -2.984375 L 14.4375 0 L 7.3125 0 L 7.3125 -2.984375 L 8.40625 -2.984375 L 8.109375 -4.4375 L 5.640625 -4.4375 L 5.34375 -2.984375 L 6.4375 -2.984375 L 6.4375 0 L 0.21875 0 L 0.21875 -2.984375 L 0.953125 -2.984375 L 4.015625 -14.15625 L 10.640625 -14.15625 Z M 6.03125 -6.359375 L 7.71875 -6.359375 L 6.96875 -9.984375 L 6.78125 -9.984375 Z M 6.03125 -6.359375 "/></g></g></g><path fill="#000000" d="M 19.535156 13.332031 C 19.597656 13.394531 19.671875 13.59375 19.765625 13.707031 C 17.488281 15.167969 12.484375 18.386719 9.6875 20.449219 C 10.734375 21.484375 12.050781 22.28125 13.550781 22.726562 C 18.429688 24.15625 23.574219 21.339844 25.003906 16.460938 C 25.65625 14.246094 25.429688 11.988281 24.539062 10.039062 C 23.835938 10.683594 23.027344 11.335938 22.15625 11.988281 C 22.125 11.996094 22.105469 12.019531 22.074219 12.039062 C 21.390625 12.554688 20.675781 13.074219 19.929688 13.582031 C 19.859375 13.457031 19.773438 13.332031 19.703125 13.210938 C 20.222656 12.847656 20.726562 12.496094 21.226562 12.140625 L 21.246094 12.121094 C 21.816406 11.71875 22.363281 11.324219 22.871094 10.921875 C 21.835938 11.53125 20.75 12.019531 19.671875 12.421875 C 19.660156 12.226562 19.683594 12.027344 19.671875 11.84375 C 19.558594 11.933594 19.421875 12.027344 19.308594 12.121094 C 19.152344 12.109375 19.0625 12.050781 18.894531 12.007812 C 18.769531 11.84375 18.648438 11.6875 18.523438 11.53125 C 20.179688 10.828125 21.910156 9.90625 23.730469 8.601562 C 23.132812 7.730469 22.40625 6.988281 21.550781 6.371094 C 20.695312 5.75 19.761719 5.292969 18.75 4.996094 C 13.871094 3.566406 8.726562 6.375 7.285156 11.261719 C 6.859375 12.722656 6.808594 14.191406 7.078125 15.601562 C 7.628906 15.3125 8.164062 15.050781 8.726562 14.824219 L 8.726562 15.011719 L 8.507812 15.3125 C 8.039062 15.453125 7.574219 15.617188 7.121094 15.796875 C 7.480469 17.484375 8.320312 19.039062 9.511719 20.273438 C 12.058594 18.199219 16.90625 14.960938 19.535156 13.332031 Z M 19.535156 13.332031 " fill-opacity="1" fill-rule="evenodd"/><path fill="#000000" d="M 11.128906 13.964844 C 11.105469 13.964844 11.085938 13.976562 11.054688 13.984375 L 11.128906 14.101562 Z M 11.128906 13.964844 " fill-opacity="1" fill-rule="evenodd"/><path fill="#adacac" d="M 9.84375 14.390625 C 9.640625 14.460938 9.441406 14.535156 9.242188 14.617188 L 9.242188 15.09375 C 9.523438 15.019531 9.824219 14.9375 10.121094 14.867188 Z M 8.726562 14.824219 C 7.542969 15.3125 6.40625 15.902344 5.296875 16.710938 C 6.238281 16.121094 7.328125 15.683594 8.507812 15.3125 L 8.714844 15 Z M 18.523438 11.53125 C 18.644531 11.6875 18.769531 11.851562 18.882812 12.007812 C 19.0625 12.058594 19.152344 12.113281 19.308594 12.121094 C 19.421875 12.027344 19.558594 11.933594 19.671875 11.84375 C 19.683594 12.039062 19.660156 12.234375 19.671875 12.421875 C 20.75 12.019531 21.835938 11.53125 22.871094 10.929688 C 22.363281 11.324219 21.816406 11.71875 21.246094 12.121094 L 21.226562 12.140625 C 20.726562 12.496094 20.21875 12.847656 19.703125 13.210938 C 19.773438 13.332031 19.859375 13.457031 19.929688 13.582031 C 20.664062 13.074219 21.390625 12.558594 22.074219 12.039062 C 22.105469 12.019531 22.125 11.996094 22.15625 11.988281 C 25.242188 9.648438 27.644531 7.273438 27.769531 5.152344 C 24.40625 8.476562 21.359375 10.320312 18.523438 11.53125 Z M 13.179688 14.183594 L 13.210938 14.078125 C 13.0625 13.863281 12.929688 13.664062 12.804688 13.46875 C 12.410156 13.582031 12.027344 13.695312 11.644531 13.808594 L 11.644531 14.515625 C 12.140625 14.398438 12.660156 14.296875 13.179688 14.183594 Z M 19.527344 13.332031 C 19.597656 13.40625 19.671875 13.59375 19.765625 13.707031 C 16.75 15.632812 9.035156 20.59375 7.84375 21.980469 C 8.050781 20.894531 15.921875 15.570312 19.527344 13.332031 Z M 13.0625 13.386719 C 13.136719 13.519531 13.21875 13.65625 13.292969 13.777344 L 13.4375 13.28125 C 13.3125 13.3125 13.1875 13.355469 13.0625 13.386719 Z M 16.988281 13.292969 C 16.96875 13.238281 16.96875 13.179688 16.96875 13.117188 C 16.980469 12.578125 17.515625 11.996094 18.222656 11.964844 C 18.347656 11.957031 18.449219 11.957031 18.542969 11.957031 C 18.460938 11.84375 18.367188 11.738281 18.273438 11.636719 C 17.277344 12.050781 16.328125 12.390625 15.382812 12.691406 L 15.703125 13.625 C 16.128906 13.519531 16.554688 13.40625 16.988281 13.292969 Z M 16.988281 13.292969 " fill-opacity="1" fill-rule="evenodd"/><path fill="#000000" d="M 19.0625 12.648438 C 19.027344 12.597656 18.992188 12.546875 18.945312 12.503906 C 18.460938 12.390625 18.054688 12.535156 18.054688 12.734375 C 18.054688 12.824219 18.097656 12.886719 18.171875 12.941406 C 18.46875 12.847656 18.769531 12.753906 19.0625 12.648438 Z M 19.0625 12.648438 " fill-opacity="1" fill-rule="evenodd"/><path fill="#ffffff" d="M 21.441406 11.988281 L 21.226562 12.140625 C 21.132812 12.050781 21.058594 11.976562 21.058594 11.988281 Z M 17.320312 14.742188 C 17.226562 14.804688 17.144531 14.867188 17.050781 14.929688 C 17.042969 14.761719 17.0625 14.597656 17.050781 14.429688 C 17.113281 14.554688 17.1875 14.648438 17.320312 14.742188 Z M 15.1875 16.679688 L 15.46875 16.492188 C 15.765625 16.742188 16.046875 16.957031 16.234375 17.070312 C 16.625 17.351562 16.449219 17.632812 16.335938 17.695312 C 16.210938 17.765625 15.882812 17.703125 15.734375 17.425781 C 15.695312 17.320312 15.445312 16.988281 15.21875 16.71875 C 15.210938 16.703125 15.199219 16.691406 15.1875 16.679688 Z M 18.644531 14.410156 C 19.050781 14.152344 19.414062 13.914062 19.734375 13.726562 C 19.910156 13.914062 20.023438 14.160156 20.023438 14.453125 C 20.042969 15.042969 19.269531 15.445312 18.625 15.488281 C 17.992188 15.527344 17.828125 15.488281 17.476562 15.375 C 17.351562 15.46875 17.175781 15.558594 17.050781 15.664062 C 17.042969 15.589844 17.050781 15.507812 17.050781 15.4375 C 17.304688 15.273438 17.5625 15.109375 17.816406 14.949219 C 18.261719 15.074219 18.730469 15.054688 18.8125 14.804688 C 18.875 14.605469 18.792969 14.492188 18.644531 14.410156 Z M 18.644531 14.410156 " fill-opacity="1" fill-rule="evenodd"/><path fill="#ffffff" d="M 19.765625 13.707031 C 20.085938 14.214844 20.367188 14.722656 20.5625 15.175781 L 20.242188 15.445312 L 20.6875 15.445312 C 20.832031 15.820312 20.925781 16.148438 20.957031 16.410156 C 21.089844 17.527344 21.257812 18.078125 20.789062 18.675781 C 20.398438 19.164062 19.746094 19.246094 18.191406 18.699219 C 18.957031 19.300781 21.070312 19.753906 21.277344 17.972656 C 21.371094 17.25 21.203125 16.359375 20.863281 15.445312 L 21.535156 15.445312 L 21.195312 15.0625 L 21.320312 14.609375 L 22.4375 14.609375 L 22.582031 15.054688 L 22.242188 15.445312 L 24.445312 15.445312 L 23.9375 14.992188 L 22.914062 11.988281 L 22.15625 11.988281 C 21.921875 12.160156 21.6875 12.332031 21.453125 12.503906 L 20.707031 15.054688 C 20.355469 14.222656 19.878906 13.40625 19.339844 12.640625 C 19.464844 12.703125 19.558594 12.785156 19.671875 12.886719 C 19.671875 12.546875 19.683594 12.183594 19.671875 11.84375 C 19.558594 11.933594 19.421875 12.027344 19.300781 12.121094 C 19.152344 12.113281 19.050781 12.058594 18.886719 12.007812 C 18.429688 11.398438 17.933594 10.828125 17.433594 10.359375 C 15.40625 8.425781 13.425781 7.222656 12.089844 8 C 10.746094 8.785156 11.894531 11.800781 12.503906 12.941406 C 12.671875 13.269531 12.929688 13.664062 13.210938 14.078125 L 12.917969 15.042969 L 12.464844 15.445312 L 13.757812 15.445312 L 13.40625 15.042969 L 13.539062 14.605469 L 13.550781 14.605469 C 14.121094 15.425781 14.710938 16.179688 14.898438 16.367188 C 14.96875 16.316406 15.050781 16.253906 15.125 16.203125 C 14.992188 16.089844 14.855469 15.964844 14.742188 15.839844 C 14.578125 15.683594 14.222656 15.226562 13.808594 14.605469 L 14.660156 14.605469 L 14.804688 15.03125 L 14.453125 15.445312 L 16.273438 15.445312 C 16.347656 15.394531 16.429688 15.332031 16.503906 15.289062 L 16.160156 14.96875 L 15.125 11.988281 L 13.28125 11.988281 C 13.269531 11.957031 13.707031 12.402344 13.707031 12.402344 L 13.292969 13.789062 C 12.640625 12.703125 11.976562 11.375 11.78125 10.289062 C 11.386719 8.207031 12.535156 7.480469 14.566406 8.457031 C 15.820312 9.066406 17.308594 10.421875 18.53125 11.957031 C 18.449219 11.957031 18.347656 11.957031 18.222656 11.964844 C 17.519531 11.996094 16.980469 12.578125 16.957031 13.117188 C 16.949219 13.65625 17.632812 14.007812 18.035156 14.171875 C 18.066406 14.183594 18.097656 14.203125 18.128906 14.214844 C 18.574219 13.925781 18.988281 13.675781 19.371094 13.4375 C 19.277344 13.386719 19.175781 13.332031 19.070312 13.292969 C 18.53125 13.085938 18.066406 13.03125 18.046875 12.734375 C 18.054688 12.535156 18.460938 12.390625 18.957031 12.503906 L 19.535156 13.332031 Z M 19.765625 13.707031 " fill-opacity="1" fill-rule="evenodd"/><path fill="#ffffff" d="M 8.371094 11.988281 L 9.894531 11.988281 L 11.128906 14.101562 L 11.128906 12.390625 L 10.804688 11.988281 L 11.988281 11.988281 L 11.644531 12.371094 L 11.644531 14.960938 L 12.027344 15.445312 L 10.453125 15.445312 L 9.242188 13.386719 L 9.242188 15.105469 L 9.605469 15.445312 L 8.394531 15.445312 L 8.714844 15 L 8.726562 12.402344 Z M 8.371094 11.988281 " fill-opacity="1" fill-rule="evenodd"/><path fill="#000000" d="M 13.695312 14.140625 L 14.441406 14.140625 L 14.046875 12.929688 C 14.046875 12.929688 13.714844 14.128906 13.695312 14.140625 Z M 13.695312 14.140625 " fill-opacity="1" fill-rule="evenodd"/><path fill="#adacac" d="M 14.101562 13.085938 C 14.066406 13.097656 14.03125 13.105469 13.996094 13.117188 C 13.921875 13.386719 13.777344 13.882812 13.714844 14.070312 C 13.933594 14.015625 14.160156 13.964844 14.367188 13.925781 Z M 14.101562 13.085938 " fill-opacity="1" fill-rule="evenodd"/><path fill="#000000" d="M 21.472656 14.140625 L 22.21875 14.140625 L 21.824219 12.949219 C 21.824219 12.949219 21.496094 14.128906 21.472656 14.140625 Z M 21.472656 14.140625 " fill-opacity="1" fill-rule="evenodd"/><path fill="#ffffff" d="M 16.097656 5.277344 C 16.152344 5.296875 16.191406 5.359375 16.171875 5.410156 C 16.152344 5.472656 16.089844 5.503906 16.035156 5.492188 C 15.972656 5.472656 15.941406 5.410156 15.953125 5.347656 C 15.972656 5.296875 16.035156 5.265625 16.097656 5.277344 Z M 13.46875 18.585938 C 13.539062 18.605469 13.59375 18.6875 13.5625 18.761719 C 13.539062 18.84375 13.46875 18.882812 13.386719 18.863281 C 13.289062 18.835938 13.257812 18.773438 13.292969 18.675781 C 13.3125 18.605469 13.394531 18.5625 13.46875 18.585938 Z M 10.734375 18.53125 C 10.832031 18.5625 10.863281 18.625 10.828125 18.71875 C 10.804688 18.792969 10.722656 18.832031 10.652344 18.8125 C 10.578125 18.792969 10.527344 18.707031 10.558594 18.636719 C 10.582031 18.539062 10.640625 18.507812 10.734375 18.53125 Z M 12.855469 17.308594 C 12.910156 17.332031 12.941406 17.394531 12.929688 17.445312 C 12.910156 17.496094 12.855469 17.527344 12.792969 17.515625 C 12.742188 17.496094 12.710938 17.433594 12.722656 17.382812 C 12.742188 17.332031 12.804688 17.300781 12.855469 17.308594 Z M 11.863281 18.242188 C 11.902344 18.253906 11.925781 18.304688 11.914062 18.347656 C 11.902344 18.386719 11.851562 18.410156 11.8125 18.398438 C 11.769531 18.386719 11.75 18.335938 11.757812 18.292969 C 11.769531 18.253906 11.8125 18.230469 11.863281 18.242188 Z M 12.496094 19.351562 C 12.546875 19.371094 12.578125 19.421875 12.566406 19.476562 C 12.546875 19.527344 12.496094 19.558594 12.441406 19.535156 C 12.375 19.523438 12.351562 19.488281 12.378906 19.421875 C 12.390625 19.371094 12.441406 19.339844 12.496094 19.351562 Z M 13.570312 19.546875 C 13.613281 19.558594 13.632812 19.597656 13.625 19.640625 C 13.613281 19.671875 13.570312 19.703125 13.53125 19.691406 C 13.488281 19.671875 13.46875 19.628906 13.476562 19.597656 C 13.488281 19.558594 13.539062 19.535156 13.570312 19.546875 Z M 20.117188 17.15625 C 20.167969 17.175781 20.199219 17.226562 20.179688 17.269531 C 20.167969 17.320312 20.117188 17.339844 20.066406 17.332031 C 20.023438 17.320312 19.992188 17.269531 20.003906 17.21875 C 20.023438 17.175781 20.074219 17.144531 20.117188 17.15625 Z M 20.136719 18.222656 C 20.191406 18.230469 20.21875 18.292969 20.210938 18.347656 C 20.191406 18.398438 20.128906 18.429688 20.085938 18.410156 C 20.035156 18.398438 19.992188 18.335938 20.011719 18.292969 C 20.023438 18.242188 20.085938 18.210938 20.136719 18.222656 Z M 20.84375 17.300781 C 20.894531 17.308594 20.933594 17.382812 20.914062 17.445312 C 20.902344 17.507812 20.832031 17.546875 20.769531 17.527344 C 20.707031 17.507812 20.675781 17.433594 20.6875 17.382812 C 20.707031 17.320312 20.78125 17.277344 20.84375 17.300781 Z M 20.832031 16.59375 C 20.902344 16.617188 20.957031 16.710938 20.933594 16.78125 C 20.914062 16.855469 20.820312 16.90625 20.75 16.886719 C 20.664062 16.863281 20.613281 16.773438 20.636719 16.699219 C 20.664062 16.617188 20.75 16.566406 20.832031 16.59375 Z M 22.1875 16.566406 C 22.238281 16.574219 22.28125 16.648438 22.261719 16.699219 C 22.25 16.75 22.179688 16.78125 22.136719 16.773438 C 22.074219 16.75 22.042969 16.6875 22.054688 16.636719 C 22.074219 16.585938 22.136719 16.542969 22.1875 16.566406 Z M 23.007812 17.289062 C 23.058594 17.308594 23.089844 17.371094 23.070312 17.433594 C 23.058594 17.476562 22.996094 17.515625 22.945312 17.496094 C 22.882812 17.488281 22.851562 17.425781 22.863281 17.371094 C 22.882812 17.308594 22.945312 17.277344 23.007812 17.289062 Z M 22.136719 18.085938 C 22.1875 18.097656 22.21875 18.171875 22.210938 18.222656 C 22.1875 18.273438 22.125 18.304688 22.074219 18.292969 C 22.023438 18.273438 21.980469 18.210938 22 18.160156 C 22.011719 18.109375 22.074219 18.066406 22.136719 18.085938 Z M 22.894531 18.5625 C 22.933594 18.574219 22.976562 18.636719 22.953125 18.6875 C 22.945312 18.738281 22.882812 18.769531 22.832031 18.761719 C 22.777344 18.738281 22.746094 18.675781 22.769531 18.636719 C 22.777344 18.585938 22.839844 18.554688 22.894531 18.5625 Z M 23.484375 17.082031 C 23.535156 17.101562 23.574219 17.175781 23.566406 17.226562 C 23.546875 17.289062 23.472656 17.332031 23.421875 17.308594 C 23.359375 17.289062 23.316406 17.21875 23.335938 17.164062 C 23.347656 17.101562 23.421875 17.0625 23.484375 17.082031 Z M 21.980469 16.148438 C 22.023438 16.160156 22.042969 16.203125 22.03125 16.234375 C 22.023438 16.265625 21.980469 16.285156 21.949219 16.273438 C 21.917969 16.265625 21.898438 16.234375 21.910156 16.203125 C 21.917969 16.160156 21.949219 16.140625 21.980469 16.148438 Z M 20.519531 20.199219 C 20.582031 20.222656 20.636719 20.304688 20.613281 20.375 C 20.59375 20.449219 20.511719 20.488281 20.4375 20.46875 C 20.367188 20.449219 20.324219 20.367188 20.34375 20.292969 C 20.367188 20.21875 20.449219 20.179688 20.519531 20.199219 Z M 12.804688 15.613281 C 12.847656 15.621094 12.867188 15.664062 12.855469 15.703125 C 12.847656 15.746094 12.792969 15.777344 12.753906 15.765625 C 12.710938 15.746094 12.691406 15.703125 12.703125 15.664062 C 12.710938 15.621094 12.765625 15.589844 12.804688 15.613281 Z M 10.328125 18.316406 C 10.382812 18.324219 10.414062 18.386719 10.402344 18.4375 C 10.382812 18.5 10.328125 18.53125 10.277344 18.511719 C 10.203125 18.5 10.179688 18.460938 10.207031 18.386719 C 10.21875 18.3125 10.257812 18.289062 10.328125 18.316406 Z M 10.445312 17.765625 C 10.496094 17.785156 10.527344 17.839844 10.515625 17.902344 C 10.496094 17.953125 10.445312 17.984375 10.382812 17.964844 C 10.328125 17.953125 10.300781 17.890625 10.320312 17.839844 C 10.332031 17.761719 10.371094 17.738281 10.445312 17.765625 Z M 9.460938 17.878906 C 9.5 17.902344 9.523438 17.941406 9.511719 17.972656 C 9.5 18.015625 9.460938 18.035156 9.417969 18.023438 C 9.378906 18.015625 9.355469 17.972656 9.367188 17.933594 C 9.378906 17.902344 9.417969 17.871094 9.460938 17.878906 Z M 15.507812 6.269531 C 15.570312 6.28125 15.601562 6.34375 15.582031 6.40625 C 15.558594 6.46875 15.496094 6.496094 15.445312 6.476562 C 15.382812 6.46875 15.351562 6.40625 15.375 6.34375 C 15.382812 6.28125 15.445312 6.25 15.507812 6.269531 Z M 16.585938 6.4375 C 16.617188 6.445312 16.636719 6.488281 16.625 6.519531 C 16.617188 6.550781 16.585938 6.570312 16.542969 6.558594 C 16.523438 6.550781 16.503906 6.519531 16.511719 6.476562 C 16.523438 6.445312 16.554688 6.425781 16.585938 6.4375 Z M 16.625 7.535156 C 16.65625 7.542969 16.679688 7.574219 16.667969 7.605469 C 16.65625 7.648438 16.625 7.65625 16.585938 7.648438 C 16.554688 7.636719 16.535156 7.605469 16.542969 7.574219 C 16.554688 7.542969 16.597656 7.523438 16.625 7.535156 Z M 14.328125 7.066406 C 14.359375 7.078125 14.378906 7.109375 14.367188 7.140625 C 14.359375 7.179688 14.328125 7.203125 14.296875 7.191406 C 14.253906 7.179688 14.246094 7.140625 14.253906 7.109375 C 14.265625 7.078125 14.296875 7.058594 14.328125 7.066406 Z M 14.523438 7.222656 C 14.566406 7.234375 14.585938 7.273438 14.578125 7.304688 C 14.566406 7.335938 14.523438 7.355469 14.492188 7.347656 C 14.460938 7.335938 14.441406 7.304688 14.453125 7.265625 C 14.460938 7.234375 14.492188 7.210938 14.523438 7.222656 Z M 12.753906 8.859375 C 12.792969 8.871094 12.816406 8.910156 12.804688 8.941406 C 12.792969 8.972656 12.753906 8.992188 12.722656 8.984375 C 12.691406 8.972656 12.671875 8.941406 12.679688 8.902344 C 12.691406 8.871094 12.722656 8.859375 12.753906 8.859375 Z M 14.8125 7.335938 C 14.855469 7.347656 14.875 7.386719 14.867188 7.429688 C 14.855469 7.480469 14.8125 7.503906 14.761719 7.492188 C 14.722656 7.480469 14.699219 7.441406 14.710938 7.386719 C 14.730469 7.347656 14.773438 7.328125 14.8125 7.335938 Z M 14.453125 7.65625 C 14.492188 7.679688 14.523438 7.71875 14.515625 7.761719 C 14.492188 7.804688 14.453125 7.832031 14.410156 7.8125 C 14.367188 7.804688 14.339844 7.761719 14.359375 7.710938 C 14.367188 7.667969 14.410156 7.648438 14.453125 7.65625 Z M 15.789062 7.058594 C 15.839844 7.078125 15.871094 7.128906 15.851562 7.171875 C 15.839844 7.234375 15.789062 7.253906 15.726562 7.242188 C 15.683594 7.222656 15.652344 7.179688 15.675781 7.121094 C 15.683594 7.066406 15.734375 7.046875 15.789062 7.058594 Z M 13.054688 9.273438 C 13.105469 9.292969 13.136719 9.347656 13.125 9.386719 C 13.105469 9.449219 13.054688 9.46875 13.003906 9.460938 C 12.949219 9.4375 12.917969 9.398438 12.941406 9.335938 C 12.949219 9.285156 13.003906 9.261719 13.054688 9.273438 Z M 17.859375 8.15625 C 17.921875 8.175781 17.960938 8.238281 17.941406 8.300781 C 17.921875 8.371094 17.859375 8.402344 17.785156 8.382812 C 17.710938 8.359375 17.6875 8.3125 17.714844 8.238281 C 17.734375 8.164062 17.796875 8.132812 17.859375 8.15625 Z M 17.726562 6.1875 L 17.808594 5.484375 L 17.871094 6.1875 C 17.890625 6.199219 17.910156 6.207031 17.921875 6.230469 L 18.40625 6.28125 L 17.933594 6.34375 C 17.921875 6.382812 17.902344 6.40625 17.871094 6.425781 L 17.808594 7.171875 L 17.734375 6.425781 C 17.703125 6.40625 17.683594 6.378906 17.671875 6.34375 L 17.1875 6.3125 L 17.683594 6.238281 C 17.695312 6.21875 17.714844 6.199219 17.726562 6.1875 Z M 13.570312 8.902344 L 13.644531 8.457031 L 13.707031 8.902344 C 13.730469 8.914062 13.746094 8.929688 13.757812 8.953125 L 14.109375 8.992188 L 13.769531 9.066406 C 13.757812 9.097656 13.738281 9.128906 13.707031 9.140625 L 13.644531 9.738281 L 13.570312 9.140625 C 13.539062 9.117188 13.519531 9.097656 13.507812 9.066406 L 13.199219 9.035156 L 13.519531 8.953125 C 13.53125 8.929688 13.550781 8.914062 13.570312 8.902344 Z M 23.097656 16.460938 L 23.171875 16.015625 L 23.234375 16.460938 C 23.253906 16.472656 23.277344 16.480469 23.285156 16.503906 L 23.617188 16.566406 L 23.296875 16.617188 C 23.285156 16.652344 23.265625 16.679688 23.234375 16.699219 L 23.160156 17.144531 L 23.097656 16.699219 C 23.070312 16.679688 23.050781 16.652344 23.039062 16.617188 L 22.625 16.574219 L 23.046875 16.511719 C 23.058594 16.492188 23.078125 16.472656 23.097656 16.460938 Z M 22.261719 18.511719 L 22.324219 18.253906 L 22.40625 18.511719 C 22.425781 18.523438 22.4375 18.542969 22.449219 18.5625 L 22.683594 18.644531 L 22.46875 18.675781 C 22.457031 18.707031 22.425781 18.738281 22.40625 18.761719 L 22.34375 19.03125 L 22.261719 18.75 C 22.230469 18.738281 22.207031 18.707031 22.199219 18.675781 L 21.929688 18.644531 L 22.21875 18.574219 C 22.230469 18.542969 22.238281 18.53125 22.261719 18.511719 Z M 12.722656 20.375 L 12.765625 19.949219 L 12.867188 20.375 C 12.886719 20.386719 12.910156 20.40625 12.917969 20.417969 L 13.28125 20.46875 L 12.929688 20.53125 C 12.917969 20.574219 12.898438 20.605469 12.867188 20.613281 L 12.792969 21.050781 L 12.722656 20.613281 C 12.699219 20.589844 12.683594 20.5625 12.671875 20.53125 L 12.320312 20.488281 L 12.679688 20.425781 C 12.691406 20.40625 12.703125 20.386719 12.722656 20.375 Z M 15.664062 19.328125 C 15.726562 19.351562 15.765625 19.414062 15.746094 19.476562 C 15.726562 19.539062 15.664062 19.578125 15.601562 19.558594 C 15.539062 19.535156 15.496094 19.476562 15.519531 19.414062 C 15.539062 19.351562 15.601562 19.308594 15.664062 19.328125 Z M 17.414062 18.71875 C 17.457031 18.730469 17.488281 18.78125 17.476562 18.824219 C 17.457031 18.875 17.402344 18.90625 17.363281 18.882812 C 17.308594 18.875 17.289062 18.824219 17.300781 18.78125 C 17.3125 18.710938 17.351562 18.691406 17.414062 18.71875 Z M 17.414062 18.71875 " fill-opacity="1" fill-rule="evenodd"/></svg>