<svg xmlns="http://www.w3.org/2000/svg" xmlns:xlink="http://www.w3.org/1999/xlink" width="126" zoomAndPan="magnify" viewBox="0 0 94.5 30.000001" height="40" preserveAspectRatio="xMidYMid meet" version="1.0"><defs><g/><clipPath id="id1"><path d="M 3.480469 2.917969 L 23.910156 2.917969 L 23.910156 11 L 3.480469 11 Z M 3.480469 2.917969 " clip-rule="nonzero"/></clipPath><clipPath id="id2"><path d="M 10 20 L 17 20 L 17 24.808594 L 10 24.808594 Z M 10 20 " clip-rule="nonzero"/></clipPath><clipPath id="id3"><path d="M 3.480469 20 L 12 20 L 12 24.808594 L 3.480469 24.808594 Z M 3.480469 20 " clip-rule="nonzero"/></clipPath><clipPath id="id4"><path d="M 15 20 L 23.910156 20 L 23.910156 24.808594 L 15 24.808594 Z M 15 20 " clip-rule="nonzero"/></clipPath></defs><g fill="#000000" fill-opacity="1"><g transform="translate(26.663716, 20.406299)"><g><path d="M 0.21875 -1.78125 L 0.765625 -1.78125 L 0.765625 -6.6875 L 0.21875 -6.6875 L 0.21875 -8.46875 L 5 -8.46875 C 5.9375 -8.46875 6.648438 -8.265625 7.140625 -7.859375 C 7.640625 -7.460938 7.890625 -6.8125 7.890625 -5.90625 C 7.890625 -5.007812 7.640625 -4.359375 7.140625 -3.953125 C 6.648438 -3.554688 5.9375 -3.359375 5 -3.359375 L 3.8125 -3.359375 L 3.8125 -1.78125 L 4.859375 -1.78125 L 4.859375 0 L 0.21875 0 Z M 4.1875 -4.90625 C 4.601562 -4.90625 4.8125 -5.132812 4.8125 -5.59375 L 4.8125 -5.984375 C 4.8125 -6.222656 4.757812 -6.398438 4.65625 -6.515625 C 4.550781 -6.628906 4.394531 -6.6875 4.1875 -6.6875 L 3.8125 -6.6875 L 3.8125 -4.90625 Z M 4.1875 -4.90625 "/></g></g></g><g fill="#000000" fill-opacity="1"><g transform="translate(34.695542, 20.406299)"><g><path d="M 6.546875 -1.78125 L 6.546875 0 L 3.671875 0 L 3.671875 -0.734375 C 3.515625 -0.503906 3.289062 -0.296875 3 -0.109375 C 2.707031 0.0664062 2.359375 0.15625 1.953125 0.15625 C 1.398438 0.15625 0.96875 0.0078125 0.65625 -0.28125 C 0.351562 -0.570312 0.203125 -0.984375 0.203125 -1.515625 C 0.203125 -2.890625 1.363281 -3.59375 3.6875 -3.625 C 3.664062 -3.875 3.570312 -4.039062 3.40625 -4.125 C 3.238281 -4.21875 2.957031 -4.265625 2.5625 -4.265625 C 2.226562 -4.265625 1.875 -4.226562 1.5 -4.15625 C 1.132812 -4.09375 0.796875 -4.003906 0.484375 -3.890625 L 0.484375 -5.890625 C 0.867188 -5.984375 1.285156 -6.054688 1.734375 -6.109375 C 2.179688 -6.171875 2.617188 -6.203125 3.046875 -6.203125 C 4.128906 -6.203125 4.898438 -6.003906 5.359375 -5.609375 C 5.828125 -5.222656 6.0625 -4.617188 6.0625 -3.796875 L 6.0625 -1.78125 Z M 3.671875 -2.546875 C 3.347656 -2.546875 3.09375 -2.5 2.90625 -2.40625 C 2.726562 -2.320312 2.640625 -2.179688 2.640625 -1.984375 C 2.640625 -1.859375 2.675781 -1.753906 2.75 -1.671875 C 2.832031 -1.597656 2.941406 -1.5625 3.078125 -1.5625 C 3.265625 -1.5625 3.410156 -1.640625 3.515625 -1.796875 C 3.617188 -1.960938 3.671875 -2.191406 3.671875 -2.484375 Z M 3.671875 -2.546875 "/></g></g></g><g fill="#000000" fill-opacity="1"><g transform="translate(41.388733, 20.406299)"><g><path d="M 4.84375 -6.203125 C 4.988281 -6.203125 5.125 -6.1875 5.25 -6.15625 C 5.382812 -6.132812 5.5 -6.101562 5.59375 -6.0625 L 5.59375 -3.96875 C 5.289062 -4.09375 4.96875 -4.15625 4.625 -4.15625 C 4.164062 -4.15625 3.8125 -4.035156 3.5625 -3.796875 C 3.320312 -3.554688 3.203125 -3.203125 3.203125 -2.734375 L 3.203125 -1.78125 L 4.1875 -1.78125 L 4.1875 0 L 0.21875 0 L 0.21875 -1.78125 L 0.703125 -1.78125 L 0.703125 -4.265625 L 0.21875 -4.265625 L 0.21875 -6.0625 L 3.203125 -6.0625 L 3.203125 -5.265625 C 3.398438 -5.566406 3.628906 -5.796875 3.890625 -5.953125 C 4.160156 -6.117188 4.476562 -6.203125 4.84375 -6.203125 Z M 4.84375 -6.203125 "/></g></g></g><g fill="#000000" fill-opacity="1"><g transform="translate(47.124196, 20.406299)"><g><path d="M 0.203125 0.015625 L 0.203125 -1.78125 L 0.671875 -1.78125 L 0.671875 -6.6875 L 0.203125 -6.6875 L 0.203125 -8.46875 L 3.1875 -8.46875 L 3.1875 -1.78125 L 3.65625 -1.78125 L 3.65625 0.015625 Z M 0.203125 0.015625 "/></g></g></g><g fill="#000000" fill-opacity="1"><g transform="translate(50.933328, 20.406299)"><g><path d="M 0.71875 -6.65625 L 0.71875 -8.46875 L 2.9375 -8.46875 L 2.9375 -6.65625 Z M 0.203125 0 L 0.203125 -1.78125 L 0.671875 -1.78125 L 0.671875 -4.265625 L 0.203125 -4.265625 L 0.203125 -6.0625 L 3.1875 -6.0625 L 3.1875 -1.78125 L 3.65625 -1.78125 L 3.65625 0 Z M 0.203125 0 "/></g></g></g><g fill="#000000" fill-opacity="1"><g transform="translate(54.698926, 20.406299)"><g><path d="M 6.546875 -1.78125 L 6.546875 0 L 3.671875 0 L 3.671875 -0.734375 C 3.515625 -0.503906 3.289062 -0.296875 3 -0.109375 C 2.707031 0.0664062 2.359375 0.15625 1.953125 0.15625 C 1.398438 0.15625 0.96875 0.0078125 0.65625 -0.28125 C 0.351562 -0.570312 0.203125 -0.984375 0.203125 -1.515625 C 0.203125 -2.890625 1.363281 -3.59375 3.6875 -3.625 C 3.664062 -3.875 3.570312 -4.039062 3.40625 -4.125 C 3.238281 -4.21875 2.957031 -4.265625 2.5625 -4.265625 C 2.226562 -4.265625 1.875 -4.226562 1.5 -4.15625 C 1.132812 -4.09375 0.796875 -4.003906 0.484375 -3.890625 L 0.484375 -5.890625 C 0.867188 -5.984375 1.285156 -6.054688 1.734375 -6.109375 C 2.179688 -6.171875 2.617188 -6.203125 3.046875 -6.203125 C 4.128906 -6.203125 4.898438 -6.003906 5.359375 -5.609375 C 5.828125 -5.222656 6.0625 -4.617188 6.0625 -3.796875 L 6.0625 -1.78125 Z M 3.671875 -2.546875 C 3.347656 -2.546875 3.09375 -2.5 2.90625 -2.40625 C 2.726562 -2.320312 2.640625 -2.179688 2.640625 -1.984375 C 2.640625 -1.859375 2.675781 -1.753906 2.75 -1.671875 C 2.832031 -1.597656 2.941406 -1.5625 3.078125 -1.5625 C 3.265625 -1.5625 3.410156 -1.640625 3.515625 -1.796875 C 3.617188 -1.960938 3.671875 -2.191406 3.671875 -2.484375 Z M 3.671875 -2.546875 "/></g></g></g><g fill="#000000" fill-opacity="1"><g transform="translate(61.392116, 20.406299)"><g><path d="M 11.203125 -1.78125 L 11.203125 0 L 7.75 0 L 7.75 -1.78125 L 8.21875 -1.78125 L 8.21875 -3.578125 C 8.21875 -3.816406 8.164062 -3.988281 8.0625 -4.09375 C 7.957031 -4.207031 7.804688 -4.265625 7.609375 -4.265625 C 7.171875 -4.265625 6.953125 -4.035156 6.953125 -3.578125 L 6.953125 -1.78125 L 7.40625 -1.78125 L 7.40625 0 L 3.984375 0 L 3.984375 -1.78125 L 4.4375 -1.78125 L 4.4375 -3.578125 C 4.4375 -3.816406 4.382812 -3.988281 4.28125 -4.09375 C 4.1875 -4.207031 4.035156 -4.265625 3.828125 -4.265625 C 3.398438 -4.265625 3.1875 -4.035156 3.1875 -3.578125 L 3.1875 -1.78125 L 3.640625 -1.78125 L 3.640625 0 L 0.203125 0 L 0.203125 -1.78125 L 0.671875 -1.78125 L 0.671875 -4.265625 L 0.203125 -4.265625 L 0.203125 -6.0625 L 3.1875 -6.0625 L 3.1875 -5.203125 C 3.707031 -5.867188 4.359375 -6.203125 5.140625 -6.203125 C 5.585938 -6.203125 5.945312 -6.097656 6.21875 -5.890625 C 6.5 -5.691406 6.695312 -5.398438 6.8125 -5.015625 C 7.070312 -5.398438 7.367188 -5.691406 7.703125 -5.890625 C 8.046875 -6.097656 8.445312 -6.203125 8.90625 -6.203125 C 9.507812 -6.203125 9.960938 -6.007812 10.265625 -5.625 C 10.566406 -5.25 10.71875 -4.734375 10.71875 -4.078125 L 10.71875 -1.78125 Z M 11.203125 -1.78125 "/></g></g></g><g fill="#000000" fill-opacity="1"><g transform="translate(72.732447, 20.406299)"><g><path d="M 3.4375 0.15625 C 2.40625 0.15625 1.597656 -0.113281 1.015625 -0.65625 C 0.441406 -1.195312 0.15625 -1.988281 0.15625 -3.03125 C 0.15625 -4.0625 0.441406 -4.847656 1.015625 -5.390625 C 1.597656 -5.929688 2.40625 -6.203125 3.4375 -6.203125 C 4.46875 -6.203125 5.207031 -5.9375 5.65625 -5.40625 C 6.113281 -4.875 6.34375 -4.210938 6.34375 -3.421875 L 6.34375 -2.640625 L 2.8125 -2.640625 L 2.8125 -2.5625 C 2.8125 -2.300781 2.890625 -2.101562 3.046875 -1.96875 C 3.203125 -1.84375 3.46875 -1.78125 3.84375 -1.78125 C 4.289062 -1.78125 4.710938 -1.8125 5.109375 -1.875 C 5.503906 -1.945312 5.851562 -2.035156 6.15625 -2.140625 L 6.15625 -0.390625 C 5.894531 -0.253906 5.519531 -0.128906 5.03125 -0.015625 C 4.539062 0.0976562 4.007812 0.15625 3.4375 0.15625 Z M 4.078125 -3.828125 L 4.078125 -3.96875 C 4.078125 -4.207031 4.019531 -4.378906 3.90625 -4.484375 C 3.800781 -4.597656 3.644531 -4.65625 3.4375 -4.65625 C 3.226562 -4.65625 3.070312 -4.597656 2.96875 -4.484375 C 2.863281 -4.378906 2.8125 -4.207031 2.8125 -3.96875 L 2.8125 -3.828125 Z M 4.078125 -3.828125 "/></g></g></g><g fill="#000000" fill-opacity="1"><g transform="translate(79.19709, 20.406299)"><g><path d="M 7.421875 -1.78125 L 7.421875 0 L 3.984375 0 L 3.984375 -1.78125 L 4.4375 -1.78125 L 4.4375 -3.578125 C 4.4375 -3.816406 4.382812 -3.988281 4.28125 -4.09375 C 4.1875 -4.207031 4.035156 -4.265625 3.828125 -4.265625 C 3.398438 -4.265625 3.1875 -4.035156 3.1875 -3.578125 L 3.1875 -1.78125 L 3.640625 -1.78125 L 3.640625 0 L 0.203125 0 L 0.203125 -1.78125 L 0.671875 -1.78125 L 0.671875 -4.265625 L 0.203125 -4.265625 L 0.203125 -6.0625 L 3.1875 -6.0625 L 3.1875 -5.203125 C 3.707031 -5.867188 4.359375 -6.203125 5.140625 -6.203125 C 5.742188 -6.203125 6.195312 -6.015625 6.5 -5.640625 C 6.800781 -5.265625 6.953125 -4.742188 6.953125 -4.078125 L 6.953125 -1.78125 Z M 7.421875 -1.78125 "/></g></g></g><g fill="#000000" fill-opacity="1"><g transform="translate(86.77182, 20.406299)"><g><path d="M 2.890625 0.15625 C 2.117188 0.15625 1.535156 -0.03125 1.140625 -0.40625 C 0.753906 -0.78125 0.5625 -1.410156 0.5625 -2.296875 L 0.5625 -4.265625 L 0.09375 -4.265625 L 0.09375 -6.0625 C 0.363281 -6.0625 0.566406 -6.128906 0.703125 -6.265625 C 0.847656 -6.410156 0.921875 -6.601562 0.921875 -6.84375 L 0.921875 -7.34375 L 3.21875 -7.34375 L 3.21875 -6.0625 L 4.6875 -6.0625 L 4.6875 -4.265625 L 3.21875 -4.265625 L 3.21875 -2.484375 C 3.21875 -2.242188 3.269531 -2.066406 3.375 -1.953125 C 3.488281 -1.835938 3.648438 -1.78125 3.859375 -1.78125 C 4.128906 -1.78125 4.429688 -1.816406 4.765625 -1.890625 L 4.765625 -0.171875 C 4.554688 -0.0859375 4.28125 -0.015625 3.9375 0.046875 C 3.59375 0.117188 3.242188 0.15625 2.890625 0.15625 Z M 2.890625 0.15625 "/></g></g></g><g clip-path="url(#id1)"><path fill="#100f0d" d="M 11.566406 8.542969 L 13.679688 8.011719 L 15.832031 8.539062 L 15.730469 8.945312 L 13.679688 8.4375 L 11.671875 8.945312 Z M 23.496094 10.148438 L 23.496094 9.683594 L 14.914062 7.53125 C 14.914062 6.433594 14.625 6.308594 14.625 6.308594 C 14.464844 6.402344 14.347656 6.566406 14.316406 6.746094 C 14.230469 6.546875 14.074219 6.210938 13.886719 6.015625 L 13.886719 3.152344 C 13.886719 3.035156 13.792969 2.945312 13.675781 2.945312 C 13.558594 2.945312 13.464844 3.035156 13.464844 3.152344 L 13.464844 3.683594 L 11.808594 3.683594 L 11.808594 4.859375 L 13.464844 4.859375 L 13.464844 6.019531 C 13.28125 6.214844 13.128906 6.550781 13.039062 6.746094 C 13.007812 6.566406 12.894531 6.402344 12.734375 6.308594 C 12.734375 6.308594 12.445312 6.433594 12.441406 7.53125 L 3.863281 9.683594 L 3.863281 10.148438 L 23.496094 10.148438 " fill-opacity="1" fill-rule="nonzero"/></g><path fill="#100f0d" d="M 22.765625 10.746094 L 4.59375 10.746094 L 4.59375 12.234375 L 22.765625 12.234375 L 22.765625 10.746094 " fill-opacity="1" fill-rule="nonzero"/><path fill="#100f0d" d="M 4.59375 20.535156 L 5.738281 20.535156 L 5.738281 12.789062 L 4.59375 12.789062 L 4.59375 20.535156 " fill-opacity="1" fill-rule="nonzero"/><path fill="#100f0d" d="M 8.171875 20.535156 L 8.171875 12.789062 L 7.023438 12.789062 L 7.023438 20.535156 L 8.171875 20.535156 " fill-opacity="1" fill-rule="nonzero"/><path fill="#100f0d" d="M 10.605469 20.535156 L 10.605469 12.789062 L 9.457031 12.789062 L 9.457031 20.535156 L 10.605469 20.535156 " fill-opacity="1" fill-rule="nonzero"/><path fill="#100f0d" d="M 17.898438 20.535156 L 17.898438 12.789062 L 16.753906 12.789062 L 16.753906 20.535156 L 17.898438 20.535156 " fill-opacity="1" fill-rule="nonzero"/><path fill="#100f0d" d="M 20.332031 20.535156 L 20.332031 12.789062 L 19.183594 12.789062 L 19.183594 20.535156 L 20.332031 20.535156 " fill-opacity="1" fill-rule="nonzero"/><path fill="#100f0d" d="M 22.765625 20.535156 L 22.765625 12.789062 L 21.617188 12.789062 L 21.617188 20.535156 L 22.765625 20.535156 " fill-opacity="1" fill-rule="nonzero"/><g clip-path="url(#id2)"><path fill="#100f0d" d="M 15.636719 22.777344 C 15.726562 22.617188 15.820312 22.445312 15.808594 22.261719 C 15.796875 22.078125 15.636719 21.890625 15.453125 21.925781 C 15.277344 21.957031 15.1875 22.183594 15.261719 22.34375 C 14.96875 22.507812 14.730469 22.726562 14.484375 22.972656 C 14.453125 22.664062 14.421875 22.363281 14.390625 22.105469 C 14.425781 22.078125 14.457031 22.042969 14.476562 22.003906 L 14.96875 20.992188 C 15.078125 20.765625 14.910156 20.507812 14.660156 20.507812 L 12.714844 20.507812 C 12.464844 20.507812 12.296875 20.765625 12.40625 20.992188 L 12.898438 22.003906 C 12.917969 22.042969 12.949219 22.078125 12.984375 22.105469 C 12.953125 22.363281 12.921875 22.65625 12.890625 22.957031 C 12.652344 22.71875 12.417969 22.507812 12.128906 22.34375 C 12.203125 22.183594 12.117188 21.957031 11.941406 21.925781 C 11.757812 21.890625 11.59375 22.078125 11.582031 22.261719 C 11.574219 22.445312 11.667969 22.617188 11.757812 22.777344 C 11.484375 22.902344 11.214844 23.027344 10.941406 23.152344 C 11.066406 23.6875 11.085938 24.242188 11.003906 24.78125 L 16.390625 24.78125 C 16.304688 24.242188 16.328125 23.6875 16.453125 23.152344 C 16.179688 23.027344 15.90625 22.902344 15.636719 22.777344 " fill-opacity="1" fill-rule="nonzero"/></g><path fill="#100f0d" d="M 15.289062 14.675781 C 15.289062 14.558594 15.195312 14.46875 15.078125 14.46875 C 14.960938 14.46875 14.867188 14.558594 14.867188 14.675781 L 14.867188 16.046875 C 14.839844 16.457031 14.703125 16.46875 14.703125 16.46875 C 14.238281 16.664062 14.09375 16.507812 13.929688 16.355469 C 13.953125 16.300781 13.972656 16.246094 13.988281 16.191406 C 14.03125 16.039062 14.054688 15.878906 14.011719 15.730469 C 13.96875 15.578125 13.847656 15.441406 13.691406 15.421875 C 13.480469 15.390625 13.304688 15.589844 13.242188 15.773438 C 13.1875 15.9375 13.160156 16.148438 13.214844 16.324219 C 12.941406 16.546875 12.964844 16.851562 12.894531 17.035156 C 12.851562 17.15625 12.695312 17.292969 12.566406 17.296875 C 12.503906 16.867188 12.238281 16.539062 12.238281 16.539062 C 12.160156 16.417969 11.996094 16.382812 11.875 16.460938 C 11.875 16.464844 11.871094 16.464844 11.871094 16.464844 C 11.757812 16.539062 11.722656 16.683594 11.785156 16.796875 C 11.925781 17.058594 12 17.355469 12 17.648438 C 12 17.789062 11.996094 17.949219 12.101562 18.039062 C 12.1875 18.113281 12.320312 18.105469 12.421875 18.058594 C 12.523438 18.007812 12.597656 17.921875 12.675781 17.839844 C 12.777344 18.558594 12.886719 19.363281 12.988281 20.105469 L 14.410156 20.105469 C 14.304688 19.167969 14.285156 18.214844 14.355469 17.269531 C 14.488281 17.207031 14.675781 17.121094 14.867188 17.050781 L 14.867188 17.574219 C 14.867188 17.6875 14.960938 17.78125 15.078125 17.78125 C 15.195312 17.78125 15.289062 17.6875 15.289062 17.574219 L 15.289062 16.347656 C 15.289062 16.339844 15.289062 16.335938 15.289062 16.332031 C 15.289062 16.292969 15.289062 16.246094 15.289062 16.203125 L 15.289062 14.675781 " fill-opacity="1" fill-rule="nonzero"/><g clip-path="url(#id3)"><path fill="#100f0d" d="M 11.023438 22.230469 C 11.050781 21.753906 11.441406 21.367188 11.898438 21.367188 C 11.921875 21.367188 11.945312 21.367188 11.96875 21.371094 L 11.902344 21.230469 C 11.851562 21.132812 11.824219 21.027344 11.816406 20.921875 L 3.480469 20.921875 L 3.480469 24.78125 L 6.480469 24.78125 L 6.480469 22.71875 L 10.558594 22.71875 L 11.039062 22.496094 C 11.023438 22.410156 11.015625 22.324219 11.023438 22.230469 " fill-opacity="1" fill-rule="nonzero"/></g><g clip-path="url(#id4)"><path fill="#100f0d" d="M 15.980469 20.921875 L 15.558594 20.921875 C 15.550781 21.027344 15.523438 21.132812 15.476562 21.230469 L 15.40625 21.371094 C 15.4375 21.367188 15.464844 21.367188 15.496094 21.367188 C 15.949219 21.367188 16.34375 21.753906 16.371094 22.230469 C 16.375 22.324219 16.367188 22.410156 16.351562 22.496094 L 16.832031 22.71875 L 20.871094 22.71875 L 20.871094 24.78125 L 23.910156 24.78125 L 23.910156 20.921875 L 15.980469 20.921875 " fill-opacity="1" fill-rule="nonzero"/></g></svg>